<mxfile host="65bd71144e">
    <diagram id="ypCh1WqYPA_LvXcs_7a2" name="Page-1">
        <mxGraphModel dx="2057" dy="1305" grid="1" gridSize="10" guides="1" tooltips="1" connect="1" arrows="1" fold="1" page="1" pageScale="1" pageWidth="850" pageHeight="1100" background="none" math="0" shadow="0">
            <root>
                <mxCell id="0"/>
                <mxCell id="1" parent="0"/>
                <mxCell id="85" value="&lt;p style=&quot;margin:0px;margin-top:6px;text-align:center;&quot;&gt;&lt;b&gt;&amp;lt;&amp;lt;Subsystem&amp;gt;&amp;gt;&lt;br&gt;Preception&lt;/b&gt;&lt;/p&gt;&lt;p style=&quot;margin:0px;margin-left:8px;&quot;&gt;&lt;br&gt;&lt;/p&gt;" style="align=left;overflow=fill;html=1;dropTarget=0;whiteSpace=wrap;" parent="1" vertex="1">
                    <mxGeometry x="-1330" y="43" width="750" height="430" as="geometry"/>
                </mxCell>
                <mxCell id="86" value="" style="shape=component;jettyWidth=8;jettyHeight=4;" parent="85" vertex="1">
                    <mxGeometry x="1" width="20" height="20" relative="1" as="geometry">
                        <mxPoint x="-24" y="4" as="offset"/>
                    </mxGeometry>
                </mxCell>
                <mxCell id="61" value="&lt;p style=&quot;margin:0px;margin-top:6px;text-align:center;&quot;&gt;&lt;b&gt;&amp;lt;&amp;lt;Subsystem&amp;gt;&amp;gt;&lt;br&gt;Robot&lt;/b&gt;&lt;/p&gt;&lt;p style=&quot;margin:0px;margin-left:8px;&quot;&gt;&lt;br&gt;&lt;/p&gt;" style="align=left;overflow=fill;html=1;dropTarget=0;whiteSpace=wrap;" parent="1" vertex="1">
                    <mxGeometry x="213" y="-8.5" width="727" height="517" as="geometry"/>
                </mxCell>
                <mxCell id="62" value="" style="shape=component;jettyWidth=8;jettyHeight=4;" parent="61" vertex="1">
                    <mxGeometry x="1" width="20" height="20" relative="1" as="geometry">
                        <mxPoint x="-24" y="4" as="offset"/>
                    </mxGeometry>
                </mxCell>
                <mxCell id="87" value="&lt;p style=&quot;margin:0px;margin-top:6px;text-align:center;&quot;&gt;&lt;b&gt;&amp;lt;&amp;lt;Subsystem&amp;gt;&amp;gt;&lt;br&gt;Navigation&lt;/b&gt;&lt;/p&gt;&lt;p style=&quot;margin:0px;margin-left:8px;&quot;&gt;&lt;br&gt;&lt;/p&gt;" style="align=left;overflow=fill;html=1;dropTarget=0;whiteSpace=wrap;" parent="1" vertex="1">
                    <mxGeometry x="-530" y="43" width="640" height="387" as="geometry"/>
                </mxCell>
                <mxCell id="88" value="" style="shape=component;jettyWidth=8;jettyHeight=4;" parent="87" vertex="1">
                    <mxGeometry x="1" width="20" height="20" relative="1" as="geometry">
                        <mxPoint x="-24" y="4" as="offset"/>
                    </mxGeometry>
                </mxCell>
                <mxCell id="5" value="«Component»&lt;br&gt;&lt;b&gt;Left Motor Driver&lt;/b&gt;" style="html=1;dropTarget=0;whiteSpace=wrap;" parent="1" vertex="1">
                    <mxGeometry x="257" y="33" width="180" height="90" as="geometry"/>
                </mxCell>
                <mxCell id="6" value="" style="shape=module;jettyWidth=8;jettyHeight=4;" parent="5" vertex="1">
                    <mxGeometry x="1" width="20" height="20" relative="1" as="geometry">
                        <mxPoint x="-27" y="7" as="offset"/>
                    </mxGeometry>
                </mxCell>
                <mxCell id="94" value="&lt;p style=&quot;margin:0px;margin-top:6px;text-align:center;&quot;&gt;&lt;b&gt;&amp;lt;&amp;lt;Subsystem&amp;gt;&amp;gt;&lt;br&gt;Structural Assesment&lt;/b&gt;&lt;/p&gt;&lt;p style=&quot;margin:0px;margin-left:8px;&quot;&gt;&lt;br&gt;&lt;/p&gt;" style="align=left;overflow=fill;html=1;dropTarget=0;whiteSpace=wrap;" parent="1" vertex="1">
                    <mxGeometry x="-990" y="-450" width="560" height="420" as="geometry"/>
                </mxCell>
                <mxCell id="95" value="" style="shape=component;jettyWidth=8;jettyHeight=4;" parent="94" vertex="1">
                    <mxGeometry x="1" width="20" height="20" relative="1" as="geometry">
                        <mxPoint x="-24" y="4" as="offset"/>
                    </mxGeometry>
                </mxCell>
                <mxCell id="7" value="" style="rounded=0;orthogonalLoop=1;jettySize=auto;html=1;endArrow=halfCircle;endFill=0;endSize=6;strokeWidth=1;fontSize=12;curved=1;exitX=0.5;exitY=1;exitDx=0;exitDy=0;" parent="1" source="5" edge="1">
                    <mxGeometry relative="1" as="geometry">
                        <mxPoint x="342" y="143" as="sourcePoint"/>
                        <mxPoint x="347" y="143" as="targetPoint"/>
                    </mxGeometry>
                </mxCell>
                <mxCell id="96" value="&lt;p style=&quot;margin:0px;margin-top:6px;text-align:center;&quot;&gt;&lt;b&gt;&amp;lt;&amp;lt;Subsystem&amp;gt;&amp;gt;&lt;br&gt;Victim Detection&amp;nbsp;&lt;/b&gt;&lt;/p&gt;&lt;p style=&quot;margin:0px;margin-left:8px;&quot;&gt;&lt;br&gt;&lt;/p&gt;" style="align=left;overflow=fill;html=1;dropTarget=0;whiteSpace=wrap;" parent="1" vertex="1">
                    <mxGeometry x="-390" y="-460" width="640" height="430" as="geometry"/>
                </mxCell>
                <mxCell id="97" value="" style="shape=component;jettyWidth=8;jettyHeight=4;" parent="96" vertex="1">
                    <mxGeometry x="1" width="20" height="20" relative="1" as="geometry">
                        <mxPoint x="-24" y="4" as="offset"/>
                    </mxGeometry>
                </mxCell>
                <mxCell id="8" value="" style="ellipse;whiteSpace=wrap;html=1;align=center;aspect=fixed;fillColor=none;strokeColor=none;resizable=0;perimeter=centerPerimeter;rotatable=0;allowArrows=0;points=[];outlineConnect=1;" parent="1" vertex="1">
                    <mxGeometry x="342" y="153" width="10" height="10" as="geometry"/>
                </mxCell>
                <mxCell id="9" value="«Component»&lt;br&gt;&lt;b&gt;Right Motor Driver&lt;/b&gt;" style="html=1;dropTarget=0;whiteSpace=wrap;" parent="1" vertex="1">
                    <mxGeometry x="477" y="33" width="180" height="90" as="geometry"/>
                </mxCell>
                <mxCell id="10" value="" style="shape=module;jettyWidth=8;jettyHeight=4;" parent="9" vertex="1">
                    <mxGeometry x="1" width="20" height="20" relative="1" as="geometry">
                        <mxPoint x="-27" y="7" as="offset"/>
                    </mxGeometry>
                </mxCell>
                <mxCell id="17" value="«Component»&lt;br&gt;&lt;b&gt;Battery Monitor&lt;/b&gt;" style="html=1;dropTarget=0;whiteSpace=wrap;" parent="1" vertex="1">
                    <mxGeometry x="677" y="33" width="210" height="90" as="geometry"/>
                </mxCell>
                <mxCell id="18" value="" style="shape=module;jettyWidth=8;jettyHeight=4;" parent="17" vertex="1">
                    <mxGeometry x="1" width="20" height="20" relative="1" as="geometry">
                        <mxPoint x="-27" y="7" as="offset"/>
                    </mxGeometry>
                </mxCell>
                <mxCell id="20" value="" style="ellipse;whiteSpace=wrap;html=1;align=center;aspect=fixed;fillColor=none;strokeColor=none;resizable=0;perimeter=centerPerimeter;rotatable=0;allowArrows=0;points=[];outlineConnect=1;" parent="1" vertex="1">
                    <mxGeometry x="782" y="133" width="10" height="10" as="geometry"/>
                </mxCell>
                <mxCell id="21" value="«Component»&lt;br&gt;&lt;b&gt;Motor Controller&lt;/b&gt;" style="html=1;dropTarget=0;whiteSpace=wrap;" parent="1" vertex="1">
                    <mxGeometry x="477" y="201" width="180" height="91" as="geometry"/>
                </mxCell>
                <mxCell id="22" value="" style="shape=module;jettyWidth=8;jettyHeight=4;" parent="21" vertex="1">
                    <mxGeometry x="1" width="20" height="21" relative="1" as="geometry">
                        <mxPoint x="-27" y="7" as="offset"/>
                    </mxGeometry>
                </mxCell>
                <mxCell id="63" value="" style="html=1;rounded=0;" parent="1" vertex="1">
                    <mxGeometry x="930" y="63" width="30" height="30" as="geometry"/>
                </mxCell>
                <mxCell id="64" value="" style="endArrow=none;html=1;rounded=0;align=center;verticalAlign=top;endFill=0;labelBackgroundColor=none;endSize=2;" parent="1" source="63" target="65" edge="1">
                    <mxGeometry relative="1" as="geometry"/>
                </mxCell>
                <mxCell id="65" value="" style="ellipse;html=1;fontSize=11;align=center;fillColor=#000000;points=[];aspect=fixed;resizable=0;verticalAlign=bottom;labelPosition=center;verticalLabelPosition=top;flipH=1;" parent="1" vertex="1">
                    <mxGeometry x="970" y="74" width="8" height="8" as="geometry"/>
                </mxCell>
                <mxCell id="66" value="" style="rounded=0;orthogonalLoop=1;jettySize=auto;html=1;endArrow=halfCircle;endFill=0;endSize=6;strokeWidth=1;sketch=0;exitX=0;exitY=0.5;exitDx=0;exitDy=0;entryX=0.636;entryY=0.466;entryDx=0;entryDy=0;entryPerimeter=0;" parent="1" source="63" target="137" edge="1">
                    <mxGeometry relative="1" as="geometry">
                        <mxPoint x="962" y="78" as="sourcePoint"/>
                        <mxPoint x="921" y="78" as="targetPoint"/>
                    </mxGeometry>
                </mxCell>
                <mxCell id="69" value="«Component»&lt;br&gt;&lt;b&gt;Inertial Measurment Unit&lt;/b&gt;" style="html=1;dropTarget=0;whiteSpace=wrap;" parent="1" vertex="1">
                    <mxGeometry x="677" y="202" width="210" height="90" as="geometry"/>
                </mxCell>
                <mxCell id="70" value="" style="shape=module;jettyWidth=8;jettyHeight=4;" parent="69" vertex="1">
                    <mxGeometry x="1" width="20" height="20" relative="1" as="geometry">
                        <mxPoint x="-27" y="7" as="offset"/>
                    </mxGeometry>
                </mxCell>
                <mxCell id="75" value="" style="html=1;rounded=0;" parent="1" vertex="1">
                    <mxGeometry x="930" y="241" width="30" height="30" as="geometry"/>
                </mxCell>
                <mxCell id="82" value="" style="rounded=0;orthogonalLoop=1;jettySize=auto;html=1;endArrow=halfCircle;endFill=0;endSize=6;strokeWidth=1;sketch=0;entryX=0.88;entryY=0.753;entryDx=0;entryDy=0;entryPerimeter=0;exitX=0;exitY=0.5;exitDx=0;exitDy=0;" parent="1" source="75" target="84" edge="1">
                    <mxGeometry relative="1" as="geometry">
                        <mxPoint x="957" y="255" as="sourcePoint"/>
                        <mxPoint x="947" y="255.00000000000023" as="targetPoint"/>
                    </mxGeometry>
                </mxCell>
                <mxCell id="83" value="" style="rounded=0;orthogonalLoop=1;jettySize=auto;html=1;endArrow=oval;endFill=0;sketch=0;sourcePerimeterSpacing=0;targetPerimeterSpacing=0;endSize=10;" parent="1" source="141" target="84" edge="1">
                    <mxGeometry relative="1" as="geometry">
                        <mxPoint x="892" y="245" as="sourcePoint"/>
                    </mxGeometry>
                </mxCell>
                <mxCell id="84" value="" style="ellipse;whiteSpace=wrap;html=1;align=center;aspect=fixed;fillColor=#000000;strokeColor=none;resizable=0;perimeter=centerPerimeter;rotatable=0;allowArrows=0;points=[];outlineConnect=1;" parent="1" vertex="1">
                    <mxGeometry x="907" y="251" width="10" height="10" as="geometry"/>
                </mxCell>
                <mxCell id="104" value="&lt;p style=&quot;margin:0px;margin-top:6px;text-align:center;&quot;&gt;&lt;b&gt;&amp;lt;&amp;lt;Subsystem&amp;gt;&amp;gt;&lt;br&gt;Commander&lt;/b&gt;&lt;/p&gt;&lt;p style=&quot;margin:0px;margin-left:8px;&quot;&gt;&lt;br&gt;&lt;/p&gt;" style="align=left;overflow=fill;html=1;dropTarget=0;whiteSpace=wrap;" parent="1" vertex="1">
                    <mxGeometry x="-530" y="-990" width="840" height="420" as="geometry"/>
                </mxCell>
                <mxCell id="105" value="" style="shape=component;jettyWidth=8;jettyHeight=4;" parent="104" vertex="1">
                    <mxGeometry x="1" width="20" height="20" relative="1" as="geometry">
                        <mxPoint x="-24" y="4" as="offset"/>
                    </mxGeometry>
                </mxCell>
                <mxCell id="106" value="«Component»&lt;br&gt;&lt;b&gt;Microphone Driver&lt;/b&gt;" style="html=1;dropTarget=0;whiteSpace=wrap;" parent="1" vertex="1">
                    <mxGeometry x="-340" y="-390" width="180" height="90" as="geometry"/>
                </mxCell>
                <mxCell id="107" value="" style="shape=module;jettyWidth=8;jettyHeight=4;" parent="106" vertex="1">
                    <mxGeometry x="1" width="20" height="20" relative="1" as="geometry">
                        <mxPoint x="-27" y="7" as="offset"/>
                    </mxGeometry>
                </mxCell>
                <mxCell id="108" value="&lt;p style=&quot;margin:0px;margin-top:6px;text-align:center;&quot;&gt;&lt;b&gt;&amp;lt;&amp;lt;Subsystem&amp;gt;&amp;gt;&lt;br&gt;Reporter&amp;nbsp;&lt;/b&gt;&lt;/p&gt;&lt;p style=&quot;margin:0px;margin-left:8px;&quot;&gt;&lt;br&gt;&lt;/p&gt;" style="align=left;overflow=fill;html=1;dropTarget=0;whiteSpace=wrap;" parent="1" vertex="1">
                    <mxGeometry x="327" y="-810" width="540" height="320" as="geometry"/>
                </mxCell>
                <mxCell id="109" value="" style="shape=component;jettyWidth=8;jettyHeight=4;" parent="108" vertex="1">
                    <mxGeometry x="1" width="20" height="20" relative="1" as="geometry">
                        <mxPoint x="-24" y="4" as="offset"/>
                    </mxGeometry>
                </mxCell>
                <mxCell id="116" value="«Component»&lt;br&gt;&lt;b&gt;Audio Processing&lt;/b&gt;" style="html=1;dropTarget=0;whiteSpace=wrap;" parent="1" vertex="1">
                    <mxGeometry x="-340" y="-280" width="180" height="90" as="geometry"/>
                </mxCell>
                <mxCell id="117" value="" style="shape=module;jettyWidth=8;jettyHeight=4;" parent="116" vertex="1">
                    <mxGeometry x="1" width="20" height="20" relative="1" as="geometry">
                        <mxPoint x="-27" y="7" as="offset"/>
                    </mxGeometry>
                </mxCell>
                <mxCell id="118" value="«Component»&lt;br&gt;&lt;b&gt;Piority Classifier&lt;/b&gt;" style="html=1;dropTarget=0;whiteSpace=wrap;" parent="1" vertex="1">
                    <mxGeometry x="357" y="-770" width="180" height="90" as="geometry"/>
                </mxCell>
                <mxCell id="119" value="" style="shape=module;jettyWidth=8;jettyHeight=4;" parent="118" vertex="1">
                    <mxGeometry x="1" width="20" height="20" relative="1" as="geometry">
                        <mxPoint x="-27" y="7" as="offset"/>
                    </mxGeometry>
                </mxCell>
                <mxCell id="120" value="«Component»&lt;br&gt;&lt;b&gt;Risk Classifier&lt;/b&gt;" style="html=1;dropTarget=0;whiteSpace=wrap;" parent="1" vertex="1">
                    <mxGeometry x="357" y="-650" width="180" height="90" as="geometry"/>
                </mxCell>
                <mxCell id="121" value="" style="shape=module;jettyWidth=8;jettyHeight=4;" parent="120" vertex="1">
                    <mxGeometry x="1" width="20" height="20" relative="1" as="geometry">
                        <mxPoint x="-27" y="7" as="offset"/>
                    </mxGeometry>
                </mxCell>
                <mxCell id="124" value="«Component»&lt;br&gt;&lt;b&gt;Force Sensor Driver&lt;/b&gt;" style="html=1;dropTarget=0;whiteSpace=wrap;" parent="1" vertex="1">
                    <mxGeometry x="-930" y="-350" width="180" height="90" as="geometry"/>
                </mxCell>
                <mxCell id="125" value="" style="shape=module;jettyWidth=8;jettyHeight=4;" parent="124" vertex="1">
                    <mxGeometry x="1" width="20" height="20" relative="1" as="geometry">
                        <mxPoint x="-27" y="7" as="offset"/>
                    </mxGeometry>
                </mxCell>
                <mxCell id="126" value="&lt;p style=&quot;margin:0px;margin-top:6px;text-align:center;&quot;&gt;&lt;b&gt;&amp;lt;&amp;lt;Subsystem&amp;gt;&amp;gt;&lt;br&gt;Tirage System&amp;nbsp;&lt;/b&gt;&lt;/p&gt;&lt;p style=&quot;margin:0px;margin-left:8px;&quot;&gt;&lt;br&gt;&lt;/p&gt;" style="align=left;overflow=fill;html=1;dropTarget=0;whiteSpace=wrap;" parent="1" vertex="1">
                    <mxGeometry x="300" y="-460" width="640" height="430" as="geometry"/>
                </mxCell>
                <mxCell id="127" value="" style="shape=component;jettyWidth=8;jettyHeight=4;" parent="126" vertex="1">
                    <mxGeometry x="1" width="20" height="20" relative="1" as="geometry">
                        <mxPoint x="-24" y="4" as="offset"/>
                    </mxGeometry>
                </mxCell>
                <mxCell id="128" value="«Component»&lt;br&gt;&lt;b&gt;Speaker Driver&lt;/b&gt;" style="html=1;dropTarget=0;whiteSpace=wrap;" parent="1" vertex="1">
                    <mxGeometry x="350" y="-390" width="180" height="90" as="geometry"/>
                </mxCell>
                <mxCell id="129" value="" style="shape=module;jettyWidth=8;jettyHeight=4;" parent="128" vertex="1">
                    <mxGeometry x="1" width="20" height="20" relative="1" as="geometry">
                        <mxPoint x="-27" y="7" as="offset"/>
                    </mxGeometry>
                </mxCell>
                <mxCell id="130" value="«Component»&lt;div&gt;&lt;br/&gt;&lt;/div&gt;" style="html=1;dropTarget=0;whiteSpace=wrap;" parent="1" vertex="1">
                    <mxGeometry x="350" y="-280" width="180" height="90" as="geometry"/>
                </mxCell>
                <mxCell id="131" value="" style="shape=module;jettyWidth=8;jettyHeight=4;" parent="130" vertex="1">
                    <mxGeometry x="1" width="20" height="20" relative="1" as="geometry">
                        <mxPoint x="-27" y="7" as="offset"/>
                    </mxGeometry>
                </mxCell>
                <mxCell id="132" value="«Component»&lt;br&gt;&lt;b&gt;Conscious Assessment&lt;/b&gt;" style="html=1;dropTarget=0;whiteSpace=wrap;" parent="1" vertex="1">
                    <mxGeometry x="350" y="-160" width="180" height="90" as="geometry"/>
                </mxCell>
                <mxCell id="133" value="" style="shape=module;jettyWidth=8;jettyHeight=4;" parent="132" vertex="1">
                    <mxGeometry x="1" width="20" height="20" relative="1" as="geometry">
                        <mxPoint x="-27" y="7" as="offset"/>
                    </mxGeometry>
                </mxCell>
                <mxCell id="135" value="" style="html=1;rounded=0;" parent="1" vertex="1">
                    <mxGeometry x="872" y="63" width="30" height="30" as="geometry"/>
                </mxCell>
                <mxCell id="136" value="" style="endArrow=none;html=1;rounded=0;align=center;verticalAlign=top;endFill=0;labelBackgroundColor=none;endSize=2;" parent="1" source="135" target="137" edge="1">
                    <mxGeometry relative="1" as="geometry"/>
                </mxCell>
                <mxCell id="137" value="" style="ellipse;html=1;fontSize=11;align=center;fillColor=#000000;points=[];aspect=fixed;resizable=0;verticalAlign=bottom;labelPosition=center;verticalLabelPosition=top;flipH=1;" parent="1" vertex="1">
                    <mxGeometry x="909" y="74" width="8" height="8" as="geometry"/>
                </mxCell>
                <mxCell id="141" value="" style="html=1;rounded=0;" parent="1" vertex="1">
                    <mxGeometry x="867" y="242" width="30" height="30" as="geometry"/>
                </mxCell>
                <mxCell id="144" value="" style="html=1;verticalAlign=bottom;labelBackgroundColor=none;endArrow=none;endFill=0;endSize=2;entryX=0.36;entryY=0.655;entryDx=0;entryDy=0;entryPerimeter=0;" parent="1" target="167" edge="1">
                    <mxGeometry width="160" relative="1" as="geometry">
                        <mxPoint x="347" y="143" as="sourcePoint"/>
                        <mxPoint x="567" y="163" as="targetPoint"/>
                        <Array as="points">
                            <mxPoint x="347" y="158"/>
                        </Array>
                    </mxGeometry>
                </mxCell>
                <mxCell id="145" value="«Component»&lt;br&gt;&lt;b&gt;Right Motor Encoder&lt;/b&gt;" style="html=1;dropTarget=0;whiteSpace=wrap;" parent="1" vertex="1">
                    <mxGeometry x="617" y="353" width="180" height="90" as="geometry"/>
                </mxCell>
                <mxCell id="146" value="" style="shape=module;jettyWidth=8;jettyHeight=4;" parent="145" vertex="1">
                    <mxGeometry x="1" width="20" height="20" relative="1" as="geometry">
                        <mxPoint x="-27" y="7" as="offset"/>
                    </mxGeometry>
                </mxCell>
                <mxCell id="147" value="«Component»&lt;br&gt;&lt;b&gt;Left Motor Encoder&lt;/b&gt;" style="html=1;dropTarget=0;whiteSpace=wrap;" parent="1" vertex="1">
                    <mxGeometry x="342" y="353" width="180" height="90" as="geometry"/>
                </mxCell>
                <mxCell id="148" value="" style="shape=module;jettyWidth=8;jettyHeight=4;" parent="147" vertex="1">
                    <mxGeometry x="1" width="20" height="20" relative="1" as="geometry">
                        <mxPoint x="-27" y="7" as="offset"/>
                    </mxGeometry>
                </mxCell>
                <mxCell id="152" value="" style="rounded=0;orthogonalLoop=1;jettySize=auto;html=1;endArrow=halfCircle;endFill=0;endSize=6;strokeWidth=1;sketch=0;exitX=0.75;exitY=1;exitDx=0;exitDy=0;" parent="1" source="21" target="154" edge="1">
                    <mxGeometry relative="1" as="geometry">
                        <mxPoint x="747" y="388" as="sourcePoint"/>
                        <Array as="points">
                            <mxPoint x="612" y="318"/>
                        </Array>
                    </mxGeometry>
                </mxCell>
                <mxCell id="153" value="" style="rounded=0;orthogonalLoop=1;jettySize=auto;html=1;endArrow=oval;endFill=0;sketch=0;sourcePerimeterSpacing=0;targetPerimeterSpacing=0;endSize=10;exitX=0.5;exitY=0;exitDx=0;exitDy=0;" parent="1" source="145" target="154" edge="1">
                    <mxGeometry relative="1" as="geometry">
                        <mxPoint x="687" y="388" as="sourcePoint"/>
                    </mxGeometry>
                </mxCell>
                <mxCell id="154" value="" style="ellipse;whiteSpace=wrap;html=1;align=center;aspect=fixed;fillColor=#000000;strokeColor=none;resizable=0;perimeter=centerPerimeter;rotatable=0;allowArrows=0;points=[];outlineConnect=1;" parent="1" vertex="1">
                    <mxGeometry x="702" y="313" width="10" height="10" as="geometry"/>
                </mxCell>
                <mxCell id="161" value="" style="rounded=0;orthogonalLoop=1;jettySize=auto;html=1;endArrow=oval;endFill=0;sketch=0;sourcePerimeterSpacing=0;targetPerimeterSpacing=0;endSize=10;exitX=0.5;exitY=0;exitDx=0;exitDy=0;" parent="1" source="147" target="162" edge="1">
                    <mxGeometry relative="1" as="geometry">
                        <mxPoint x="482" y="328" as="sourcePoint"/>
                    </mxGeometry>
                </mxCell>
                <mxCell id="165" value="" style="rounded=0;orthogonalLoop=1;jettySize=auto;html=1;endArrow=halfCircle;endFill=0;endSize=6;strokeWidth=1;sketch=0;exitX=0.5;exitY=1;exitDx=0;exitDy=0;" parent="1" source="9" target="167" edge="1">
                    <mxGeometry relative="1" as="geometry">
                        <mxPoint x="592" y="158" as="sourcePoint"/>
                    </mxGeometry>
                </mxCell>
                <mxCell id="166" value="" style="rounded=0;orthogonalLoop=1;jettySize=auto;html=1;endArrow=oval;endFill=0;sketch=0;sourcePerimeterSpacing=0;targetPerimeterSpacing=0;endSize=10;exitX=0.5;exitY=0;exitDx=0;exitDy=0;" parent="1" source="21" target="167" edge="1">
                    <mxGeometry relative="1" as="geometry">
                        <mxPoint x="552" y="158" as="sourcePoint"/>
                    </mxGeometry>
                </mxCell>
                <mxCell id="167" value="" style="ellipse;whiteSpace=wrap;html=1;align=center;aspect=fixed;fillColor=#000000;strokeColor=none;resizable=0;perimeter=centerPerimeter;rotatable=0;allowArrows=0;points=[];outlineConnect=1;" parent="1" vertex="1">
                    <mxGeometry x="562" y="153" width="10" height="10" as="geometry"/>
                </mxCell>
                <mxCell id="169" value="" style="ellipse;whiteSpace=wrap;html=1;align=center;aspect=fixed;fillColor=none;strokeColor=none;resizable=0;perimeter=centerPerimeter;rotatable=0;allowArrows=0;points=[];outlineConnect=1;" parent="1" vertex="1">
                    <mxGeometry x="667" y="343" width="10" height="10" as="geometry"/>
                </mxCell>
                <mxCell id="170" value="«Component»&lt;br&gt;&lt;b&gt;Slam&lt;/b&gt;" style="html=1;dropTarget=0;whiteSpace=wrap;flipH=1;" parent="1" vertex="1">
                    <mxGeometry x="-470" y="194" width="180" height="70" as="geometry"/>
                </mxCell>
                <mxCell id="171" value="" style="shape=module;jettyWidth=8;jettyHeight=4;" parent="170" vertex="1">
                    <mxGeometry x="159" width="20" height="20" relative="1" as="geometry">
                        <mxPoint x="-27" y="7" as="offset"/>
                    </mxGeometry>
                </mxCell>
                <mxCell id="172" value="«Component»&lt;br&gt;&lt;b&gt;Path Planning&lt;/b&gt;" style="html=1;dropTarget=0;whiteSpace=wrap;flipH=1;" parent="1" vertex="1">
                    <mxGeometry x="-230" y="194" width="180" height="70" as="geometry"/>
                </mxCell>
                <mxCell id="173" value="" style="shape=module;jettyWidth=8;jettyHeight=4;" parent="172" vertex="1">
                    <mxGeometry x="159" width="20" height="20" relative="1" as="geometry">
                        <mxPoint x="-27" y="7" as="offset"/>
                    </mxGeometry>
                </mxCell>
                <mxCell id="174" value="«Component»&lt;br&gt;&lt;b&gt;RGB Camera Driver&lt;/b&gt;" style="html=1;dropTarget=0;whiteSpace=wrap;" parent="1" vertex="1">
                    <mxGeometry x="-1300" y="93" width="180" height="90" as="geometry"/>
                </mxCell>
                <mxCell id="175" value="" style="shape=module;jettyWidth=8;jettyHeight=4;" parent="174" vertex="1">
                    <mxGeometry x="1" width="20" height="20" relative="1" as="geometry">
                        <mxPoint x="-27" y="7" as="offset"/>
                    </mxGeometry>
                </mxCell>
                <mxCell id="176" value="«Component»&lt;br&gt;&lt;b&gt;Sonar Driver&lt;/b&gt;" style="html=1;dropTarget=0;whiteSpace=wrap;" parent="1" vertex="1">
                    <mxGeometry x="-840" y="110" width="180" height="90" as="geometry"/>
                </mxCell>
                <mxCell id="177" value="" style="shape=module;jettyWidth=8;jettyHeight=4;" parent="176" vertex="1">
                    <mxGeometry x="1" width="20" height="20" relative="1" as="geometry">
                        <mxPoint x="-27" y="7" as="offset"/>
                    </mxGeometry>
                </mxCell>
                <mxCell id="183" value="" style="rounded=0;orthogonalLoop=1;jettySize=auto;html=1;endArrow=halfCircle;endFill=0;endSize=6;strokeWidth=1;sketch=0;exitX=0.25;exitY=1;exitDx=0;exitDy=0;" parent="1" source="21" target="162" edge="1">
                    <mxGeometry relative="1" as="geometry">
                        <mxPoint x="527" y="283" as="sourcePoint"/>
                        <mxPoint x="362" y="313" as="targetPoint"/>
                        <Array as="points">
                            <mxPoint x="522" y="318"/>
                        </Array>
                    </mxGeometry>
                </mxCell>
                <mxCell id="162" value="" style="ellipse;whiteSpace=wrap;html=1;align=center;aspect=fixed;fillColor=#000000;strokeColor=none;resizable=0;perimeter=centerPerimeter;rotatable=0;allowArrows=0;points=[];outlineConnect=1;" parent="1" vertex="1">
                    <mxGeometry x="427" y="313" width="10" height="10" as="geometry"/>
                </mxCell>
                <mxCell id="184" value="" style="html=1;rounded=0;direction=west;" parent="1" vertex="1">
                    <mxGeometry x="457" y="231" width="30" height="31" as="geometry"/>
                </mxCell>
                <mxCell id="185" value="" style="endArrow=none;html=1;rounded=0;align=center;verticalAlign=top;endFill=0;labelBackgroundColor=none;endSize=2;" parent="1" source="186" edge="1">
                    <mxGeometry relative="1" as="geometry">
                        <mxPoint x="437" y="246" as="targetPoint"/>
                    </mxGeometry>
                </mxCell>
                <mxCell id="187" value="" style="endArrow=none;html=1;rounded=0;align=center;verticalAlign=top;endFill=0;labelBackgroundColor=none;endSize=2;" parent="1" source="184" target="186" edge="1">
                    <mxGeometry relative="1" as="geometry">
                        <mxPoint x="457" y="246" as="sourcePoint"/>
                        <mxPoint x="437" y="246" as="targetPoint"/>
                    </mxGeometry>
                </mxCell>
                <mxCell id="186" value="" style="shape=requiredInterface;html=1;fontSize=11;align=center;fillColor=none;points=[];aspect=fixed;resizable=0;verticalAlign=bottom;labelPosition=center;verticalLabelPosition=top;flipH=1;rotation=-180;" parent="1" vertex="1">
                    <mxGeometry x="437" y="241" width="5" height="10" as="geometry"/>
                </mxCell>
                <mxCell id="188" value="«Activity»&lt;br&gt;&lt;b&gt;3D_map.map&lt;/b&gt;" style="html=1;whiteSpace=wrap;" parent="1" vertex="1">
                    <mxGeometry x="-450" y="119.5" width="90" height="37" as="geometry"/>
                </mxCell>
                <mxCell id="189" value="" style="html=1;rounded=0;" parent="1" vertex="1">
                    <mxGeometry x="-70" y="229" width="30" height="30" as="geometry"/>
                </mxCell>
                <mxCell id="190" value="" style="endArrow=none;html=1;rounded=0;align=center;verticalAlign=top;endFill=0;labelBackgroundColor=none;endSize=2;" parent="1" source="189" target="191" edge="1">
                    <mxGeometry relative="1" as="geometry"/>
                </mxCell>
                <mxCell id="192" value="" style="html=1;rounded=0;" parent="1" vertex="1">
                    <mxGeometry x="207" y="230" width="30" height="31" as="geometry"/>
                </mxCell>
                <mxCell id="193" value="" style="endArrow=none;html=1;rounded=0;align=center;verticalAlign=top;endFill=0;labelBackgroundColor=none;endSize=2;" parent="1" source="192" target="194" edge="1">
                    <mxGeometry relative="1" as="geometry"/>
                </mxCell>
                <mxCell id="194" value="" style="ellipse;html=1;fontSize=11;align=center;fillColor=#000000;points=[];aspect=fixed;resizable=0;verticalAlign=bottom;labelPosition=center;verticalLabelPosition=top;flipH=1;" parent="1" vertex="1">
                    <mxGeometry x="429" y="242" width="8" height="8" as="geometry"/>
                </mxCell>
                <mxCell id="195" value="" style="html=1;rounded=0;" parent="1" vertex="1">
                    <mxGeometry x="90" y="229" width="30" height="30" as="geometry"/>
                </mxCell>
                <mxCell id="196" value="" style="endArrow=none;html=1;rounded=0;align=center;verticalAlign=top;endFill=0;labelBackgroundColor=none;endSize=2;" parent="1" source="195" target="197" edge="1">
                    <mxGeometry relative="1" as="geometry"/>
                </mxCell>
                <mxCell id="197" value="" style="ellipse;html=1;fontSize=11;align=center;fillColor=#000000;points=[];aspect=fixed;resizable=0;verticalAlign=bottom;labelPosition=center;verticalLabelPosition=top;flipH=1;" parent="1" vertex="1">
                    <mxGeometry x="160" y="240" width="8" height="8" as="geometry"/>
                </mxCell>
                <mxCell id="199" value="" style="ellipse;whiteSpace=wrap;html=1;align=center;aspect=fixed;fillColor=none;strokeColor=none;resizable=0;perimeter=centerPerimeter;rotatable=0;allowArrows=0;points=[];outlineConnect=1;" parent="1" vertex="1">
                    <mxGeometry x="-10" y="239" width="10" height="10" as="geometry"/>
                </mxCell>
                <mxCell id="202" value="" style="rounded=0;orthogonalLoop=1;jettySize=auto;html=1;endArrow=halfCircle;endFill=0;endSize=6;strokeWidth=1;sketch=0;fontSize=12;curved=1;exitX=0;exitY=0.5;exitDx=0;exitDy=0;" parent="1" source="195" target="191" edge="1">
                    <mxGeometry relative="1" as="geometry">
                        <mxPoint x="20" y="244" as="sourcePoint"/>
                        <mxPoint x="-5" y="244" as="targetPoint"/>
                    </mxGeometry>
                </mxCell>
                <mxCell id="191" value="" style="ellipse;html=1;fontSize=11;align=center;fillColor=#000000;points=[];aspect=fixed;resizable=0;verticalAlign=bottom;labelPosition=center;verticalLabelPosition=top;flipH=1;strokeColor=#000000;" parent="1" vertex="1">
                    <mxGeometry x="-18" y="240" width="8" height="8" as="geometry"/>
                </mxCell>
                <mxCell id="203" value="" style="rounded=0;orthogonalLoop=1;jettySize=auto;html=1;endArrow=halfCircle;endFill=0;endSize=6;strokeWidth=1;sketch=0;fontSize=12;curved=1;exitX=0;exitY=0.5;exitDx=0;exitDy=0;entryX=0.668;entryY=0.616;entryDx=0;entryDy=0;entryPerimeter=0;" parent="1" source="192" target="204" edge="1">
                    <mxGeometry relative="1" as="geometry">
                        <mxPoint x="140" y="244" as="sourcePoint"/>
                        <mxPoint x="87" y="236" as="targetPoint"/>
                    </mxGeometry>
                </mxCell>
                <mxCell id="204" value="" style="ellipse;whiteSpace=wrap;html=1;align=center;aspect=fixed;fillColor=none;strokeColor=none;resizable=0;perimeter=centerPerimeter;rotatable=0;allowArrows=0;points=[];outlineConnect=1;" parent="1" vertex="1">
                    <mxGeometry x="160" y="240" width="10" height="10" as="geometry"/>
                </mxCell>
                <mxCell id="205" value="" style="rounded=0;orthogonalLoop=1;jettySize=auto;html=1;endArrow=halfCircle;endFill=0;endSize=6;strokeWidth=1;sketch=0;exitX=0;exitY=0.5;exitDx=0;exitDy=0;" parent="1" source="172" target="207" edge="1">
                    <mxGeometry relative="1" as="geometry">
                        <mxPoint x="-250" y="234" as="sourcePoint"/>
                    </mxGeometry>
                </mxCell>
                <mxCell id="206" value="" style="rounded=0;orthogonalLoop=1;jettySize=auto;html=1;endArrow=oval;endFill=0;sketch=0;sourcePerimeterSpacing=0;targetPerimeterSpacing=0;endSize=10;exitX=1;exitY=0.5;exitDx=0;exitDy=0;" parent="1" source="170" target="207" edge="1">
                    <mxGeometry relative="1" as="geometry">
                        <mxPoint x="-290" y="234" as="sourcePoint"/>
                    </mxGeometry>
                </mxCell>
                <mxCell id="207" value="" style="ellipse;whiteSpace=wrap;html=1;align=center;aspect=fixed;fillColor=#000000;strokeColor=none;resizable=0;perimeter=centerPerimeter;rotatable=0;allowArrows=0;points=[];outlineConnect=1;" parent="1" vertex="1">
                    <mxGeometry x="-270" y="224" width="10" height="10" as="geometry"/>
                </mxCell>
                <mxCell id="208" value="" style="endArrow=open;html=1;rounded=0;align=center;verticalAlign=bottom;dashed=1;endFill=0;labelBackgroundColor=none;exitX=0.25;exitY=0;exitDx=0;exitDy=0;entryX=0.25;entryY=1;entryDx=0;entryDy=0;" parent="1" source="170" target="188" edge="1">
                    <mxGeometry relative="1" as="geometry">
                        <mxPoint x="-420" y="309" as="sourcePoint"/>
                        <mxPoint x="-332.5" y="302" as="targetPoint"/>
                    </mxGeometry>
                </mxCell>
                <mxCell id="210" value="" style="endArrow=open;html=1;rounded=0;align=center;verticalAlign=bottom;dashed=1;endFill=0;labelBackgroundColor=none;exitX=0.75;exitY=1;exitDx=0;exitDy=0;entryX=0.5;entryY=0;entryDx=0;entryDy=0;" parent="1" source="188" target="170" edge="1">
                    <mxGeometry relative="1" as="geometry">
                        <mxPoint x="-277.5" y="302" as="sourcePoint"/>
                        <mxPoint x="-390" y="489" as="targetPoint"/>
                    </mxGeometry>
                </mxCell>
                <mxCell id="212" value="" style="html=1;rounded=0;" parent="1" vertex="1">
                    <mxGeometry x="-451" y="413" width="30" height="30" as="geometry"/>
                </mxCell>
                <mxCell id="218" value="" style="html=1;rounded=0;" parent="1" vertex="1">
                    <mxGeometry x="-451" y="253" width="30" height="30" as="geometry"/>
                </mxCell>
                <mxCell id="224" value="" style="ellipse;whiteSpace=wrap;html=1;align=center;aspect=fixed;fillColor=none;strokeColor=none;resizable=0;perimeter=centerPerimeter;rotatable=0;allowArrows=0;points=[];outlineConnect=1;" parent="1" vertex="1">
                    <mxGeometry x="950" y="510" width="10" height="10" as="geometry"/>
                </mxCell>
                <mxCell id="225" value="" style="shape=module;jettyWidth=8;jettyHeight=4;" parent="1" vertex="1">
                    <mxGeometry x="-315" y="202" width="20" height="20" as="geometry"/>
                </mxCell>
                <mxCell id="226" value="" style="shape=module;jettyWidth=8;jettyHeight=4;" parent="1" vertex="1">
                    <mxGeometry x="-80" y="202" width="20" height="20" as="geometry"/>
                </mxCell>
                <mxCell id="227" value="" style="html=1;rounded=0;" parent="1" vertex="1">
                    <mxGeometry x="502" y="191" width="30" height="31" as="geometry"/>
                </mxCell>
                <mxCell id="233" value="" style="rounded=0;orthogonalLoop=1;jettySize=auto;html=1;endArrow=halfCircle;endFill=0;endSize=6;strokeWidth=1;sketch=0;exitX=0.5;exitY=1;exitDx=0;exitDy=0;" parent="1" source="218" target="235" edge="1">
                    <mxGeometry relative="1" as="geometry">
                        <mxPoint x="-405" y="308" as="sourcePoint"/>
                    </mxGeometry>
                </mxCell>
                <mxCell id="234" value="" style="rounded=0;orthogonalLoop=1;jettySize=auto;html=1;endArrow=oval;endFill=0;sketch=0;sourcePerimeterSpacing=0;targetPerimeterSpacing=0;endSize=10;exitX=0.5;exitY=0;exitDx=0;exitDy=0;" parent="1" source="212" target="235" edge="1">
                    <mxGeometry relative="1" as="geometry">
                        <mxPoint x="-456" y="308" as="sourcePoint"/>
                    </mxGeometry>
                </mxCell>
                <mxCell id="235" value="" style="ellipse;whiteSpace=wrap;html=1;align=center;aspect=fixed;fillColor=#000000;strokeColor=none;resizable=0;perimeter=centerPerimeter;rotatable=0;allowArrows=0;points=[];outlineConnect=1;" parent="1" vertex="1">
                    <mxGeometry x="-441" y="323" width="10" height="10" as="geometry"/>
                </mxCell>
                <mxCell id="236" value="" style="html=1;rounded=0;" parent="1" vertex="1">
                    <mxGeometry x="90" y="153" width="30" height="30" as="geometry"/>
                </mxCell>
                <mxCell id="239" value="" style="html=1;rounded=0;" parent="1" vertex="1">
                    <mxGeometry x="207" y="153" width="30" height="30" as="geometry"/>
                </mxCell>
                <mxCell id="242" value="" style="rounded=0;orthogonalLoop=1;jettySize=auto;html=1;endArrow=halfCircle;endFill=0;endSize=6;strokeWidth=1;sketch=0;exitX=1;exitY=0.5;exitDx=0;exitDy=0;" parent="1" source="236" target="244" edge="1">
                    <mxGeometry relative="1" as="geometry">
                        <mxPoint x="180" y="168" as="sourcePoint"/>
                    </mxGeometry>
                </mxCell>
                <mxCell id="243" value="" style="rounded=0;orthogonalLoop=1;jettySize=auto;html=1;endArrow=oval;endFill=0;sketch=0;sourcePerimeterSpacing=0;targetPerimeterSpacing=0;endSize=10;exitX=0;exitY=0.5;exitDx=0;exitDy=0;" parent="1" source="239" target="244" edge="1">
                    <mxGeometry relative="1" as="geometry">
                        <mxPoint x="140" y="168" as="sourcePoint"/>
                    </mxGeometry>
                </mxCell>
                <mxCell id="244" value="" style="ellipse;whiteSpace=wrap;html=1;align=center;aspect=fixed;fillColor=#000000;strokeColor=none;resizable=0;perimeter=centerPerimeter;rotatable=0;allowArrows=0;points=[];outlineConnect=1;" parent="1" vertex="1">
                    <mxGeometry x="160" y="163" width="10" height="10" as="geometry"/>
                </mxCell>
                <mxCell id="245" value="" style="rounded=0;orthogonalLoop=1;jettySize=auto;html=1;endArrow=halfCircle;endFill=0;endSize=6;strokeWidth=1;sketch=0;exitX=1;exitY=0.5;exitDx=0;exitDy=0;" parent="1" source="239" target="247" edge="1">
                    <mxGeometry relative="1" as="geometry">
                        <mxPoint x="370" y="169" as="sourcePoint"/>
                    </mxGeometry>
                </mxCell>
                <mxCell id="246" value="" style="rounded=0;orthogonalLoop=1;jettySize=auto;html=1;endArrow=oval;endFill=0;sketch=0;sourcePerimeterSpacing=0;targetPerimeterSpacing=0;endSize=10;exitX=0.5;exitY=0;exitDx=0;exitDy=0;" parent="1" source="227" target="247" edge="1">
                    <mxGeometry relative="1" as="geometry">
                        <mxPoint x="330" y="169" as="sourcePoint"/>
                        <Array as="points">
                            <mxPoint x="517" y="169"/>
                        </Array>
                    </mxGeometry>
                </mxCell>
                <mxCell id="247" value="" style="ellipse;whiteSpace=wrap;html=1;align=center;aspect=fixed;fillColor=#000000;strokeColor=none;resizable=0;perimeter=centerPerimeter;rotatable=0;allowArrows=0;points=[];outlineConnect=1;" parent="1" vertex="1">
                    <mxGeometry x="310" y="164" width="10" height="10" as="geometry"/>
                </mxCell>
                <mxCell id="250" value="" style="rounded=0;orthogonalLoop=1;jettySize=auto;html=1;endArrow=oval;endFill=0;sketch=0;sourcePerimeterSpacing=0;targetPerimeterSpacing=0;endSize=10;exitX=0.5;exitY=0;exitDx=0;exitDy=0;" parent="1" source="252" target="251" edge="1">
                    <mxGeometry relative="1" as="geometry">
                        <mxPoint x="-370" y="159" as="sourcePoint"/>
                        <Array as="points">
                            <mxPoint x="-340" y="168"/>
                        </Array>
                    </mxGeometry>
                </mxCell>
                <mxCell id="252" value="" style="html=1;rounded=0;" parent="1" vertex="1">
                    <mxGeometry x="-355" y="183" width="30" height="30" as="geometry"/>
                </mxCell>
                <mxCell id="256" value="" style="rounded=0;orthogonalLoop=1;jettySize=auto;html=1;endArrow=halfCircle;endFill=0;endSize=6;strokeWidth=1;sketch=0;exitX=0;exitY=0.5;exitDx=0;exitDy=0;" parent="1" source="236" target="251" edge="1">
                    <mxGeometry relative="1" as="geometry">
                        <mxPoint x="90" y="168" as="sourcePoint"/>
                        <mxPoint x="-320" y="170" as="targetPoint"/>
                    </mxGeometry>
                </mxCell>
                <mxCell id="251" value="" style="ellipse;whiteSpace=wrap;html=1;align=center;aspect=fixed;fillColor=#000000;strokeColor=none;resizable=0;perimeter=centerPerimeter;rotatable=0;allowArrows=0;points=[];outlineConnect=1;" parent="1" vertex="1">
                    <mxGeometry x="-325" y="163" width="10" height="10" as="geometry"/>
                </mxCell>
                <mxCell id="258" value="" style="html=1;rounded=0;" parent="1" vertex="1">
                    <mxGeometry x="-395" y="253" width="30" height="30" as="geometry"/>
                </mxCell>
                <mxCell id="261" value="" style="html=1;rounded=0;" parent="1" vertex="1">
                    <mxGeometry x="-335" y="252" width="30" height="30" as="geometry"/>
                </mxCell>
                <mxCell id="265" value="" style="html=1;rounded=0;" parent="1" vertex="1">
                    <mxGeometry x="417" y="430" width="30" height="30" as="geometry"/>
                </mxCell>
                <mxCell id="268" value="" style="html=1;rounded=0;" parent="1" vertex="1">
                    <mxGeometry x="690" y="430" width="30" height="30" as="geometry"/>
                </mxCell>
                <mxCell id="276" value="" style="html=1;rounded=0;" parent="1" vertex="1">
                    <mxGeometry x="417" y="490" width="30" height="30" as="geometry"/>
                </mxCell>
                <mxCell id="280" value="" style="rounded=0;orthogonalLoop=1;jettySize=auto;html=1;endArrow=halfCircle;endFill=0;endSize=6;strokeWidth=1;sketch=0;exitX=0.5;exitY=0;exitDx=0;exitDy=0;" parent="1" source="276" target="282" edge="1">
                    <mxGeometry relative="1" as="geometry">
                        <mxPoint x="437" y="475" as="sourcePoint"/>
                    </mxGeometry>
                </mxCell>
                <mxCell id="281" value="" style="rounded=0;orthogonalLoop=1;jettySize=auto;html=1;endArrow=oval;endFill=0;sketch=0;sourcePerimeterSpacing=0;targetPerimeterSpacing=0;endSize=10;exitX=0.5;exitY=1;exitDx=0;exitDy=0;" parent="1" source="265" target="282" edge="1">
                    <mxGeometry relative="1" as="geometry">
                        <mxPoint x="397" y="475" as="sourcePoint"/>
                    </mxGeometry>
                </mxCell>
                <mxCell id="282" value="" style="ellipse;whiteSpace=wrap;html=1;align=center;aspect=fixed;fillColor=#000000;strokeColor=none;resizable=0;perimeter=centerPerimeter;rotatable=0;allowArrows=0;points=[];outlineConnect=1;" parent="1" vertex="1">
                    <mxGeometry x="427" y="470" width="10" height="10" as="geometry"/>
                </mxCell>
                <mxCell id="283" value="" style="html=1;rounded=0;" parent="1" vertex="1">
                    <mxGeometry x="690" y="490" width="30" height="30" as="geometry"/>
                </mxCell>
                <mxCell id="284" value="" style="rounded=0;orthogonalLoop=1;jettySize=auto;html=1;endArrow=halfCircle;endFill=0;endSize=6;strokeWidth=1;sketch=0;exitX=0.5;exitY=0;exitDx=0;exitDy=0;" parent="1" source="283" target="286" edge="1">
                    <mxGeometry relative="1" as="geometry">
                        <mxPoint x="712" y="475" as="sourcePoint"/>
                    </mxGeometry>
                </mxCell>
                <mxCell id="285" value="" style="rounded=0;orthogonalLoop=1;jettySize=auto;html=1;endArrow=oval;endFill=0;sketch=0;sourcePerimeterSpacing=0;targetPerimeterSpacing=0;endSize=10;exitX=0.5;exitY=1;exitDx=0;exitDy=0;" parent="1" source="268" target="286" edge="1">
                    <mxGeometry relative="1" as="geometry">
                        <mxPoint x="707" y="460" as="sourcePoint"/>
                    </mxGeometry>
                </mxCell>
                <mxCell id="286" value="" style="ellipse;whiteSpace=wrap;html=1;align=center;aspect=fixed;fillColor=#000000;strokeColor=none;resizable=0;perimeter=centerPerimeter;rotatable=0;allowArrows=0;points=[];outlineConnect=1;" parent="1" vertex="1">
                    <mxGeometry x="700" y="470" width="10" height="10" as="geometry"/>
                </mxCell>
                <mxCell id="288" value="«Component»&lt;br&gt;&lt;b&gt;Task Scheduler&lt;/b&gt;" style="html=1;dropTarget=0;whiteSpace=wrap;" parent="1" vertex="1">
                    <mxGeometry x="-495" y="-830" width="180" height="70" as="geometry"/>
                </mxCell>
                <mxCell id="289" value="" style="shape=module;jettyWidth=8;jettyHeight=4;" parent="288" vertex="1">
                    <mxGeometry x="1" width="20" height="20" relative="1" as="geometry">
                        <mxPoint x="-27" y="7" as="offset"/>
                    </mxGeometry>
                </mxCell>
                <mxCell id="290" value="«Component»&lt;br&gt;&lt;b&gt;Mission Controller&lt;/b&gt;" style="html=1;dropTarget=0;whiteSpace=wrap;" parent="1" vertex="1">
                    <mxGeometry x="-495" y="-930" width="180" height="70" as="geometry"/>
                </mxCell>
                <mxCell id="291" value="" style="shape=module;jettyWidth=8;jettyHeight=4;" parent="290" vertex="1">
                    <mxGeometry x="1" width="20" height="20" relative="1" as="geometry">
                        <mxPoint x="-27" y="7" as="offset"/>
                    </mxGeometry>
                </mxCell>
                <mxCell id="292" value="«Component»&lt;br&gt;&lt;b&gt;SystemStatusManager&lt;/b&gt;" style="html=1;dropTarget=0;whiteSpace=wrap;" parent="1" vertex="1">
                    <mxGeometry x="-496" y="-720" width="180" height="70" as="geometry"/>
                </mxCell>
                <mxCell id="293" value="" style="shape=module;jettyWidth=8;jettyHeight=4;" parent="292" vertex="1">
                    <mxGeometry x="1" width="20" height="20" relative="1" as="geometry">
                        <mxPoint x="-27" y="7" as="offset"/>
                    </mxGeometry>
                </mxCell>
                <mxCell id="294" value="«Component»&lt;br&gt;&lt;strong&gt;SupervisorInterfaceHandler&lt;/strong&gt;" style="html=1;dropTarget=0;whiteSpace=wrap;" parent="1" vertex="1">
                    <mxGeometry x="-250" y="-930" width="180" height="70" as="geometry"/>
                </mxCell>
                <mxCell id="295" value="" style="shape=module;jettyWidth=8;jettyHeight=4;" parent="294" vertex="1">
                    <mxGeometry x="1" width="20" height="20" relative="1" as="geometry">
                        <mxPoint x="-27" y="7" as="offset"/>
                    </mxGeometry>
                </mxCell>
                <mxCell id="296" value="«Component»&lt;br&gt;FailureMangment" style="html=1;dropTarget=0;whiteSpace=wrap;" parent="1" vertex="1">
                    <mxGeometry x="-250" y="-830" width="180" height="70" as="geometry"/>
                </mxCell>
                <mxCell id="297" value="" style="shape=module;jettyWidth=8;jettyHeight=4;" parent="296" vertex="1">
                    <mxGeometry x="1" width="20" height="20" relative="1" as="geometry">
                        <mxPoint x="-27" y="7" as="offset"/>
                    </mxGeometry>
                </mxCell>
                <mxCell id="299" value="" style="html=1;rounded=0;" parent="1" vertex="1">
                    <mxGeometry x="-395" y="413" width="30" height="30" as="geometry"/>
                </mxCell>
                <mxCell id="300" value="" style="html=1;rounded=0;" parent="1" vertex="1">
                    <mxGeometry x="-335" y="413" width="30" height="30" as="geometry"/>
                </mxCell>
                <mxCell id="301" value="" style="rounded=0;orthogonalLoop=1;jettySize=auto;html=1;endArrow=halfCircle;endFill=0;endSize=6;strokeWidth=1;sketch=0;exitX=0.5;exitY=1;exitDx=0;exitDy=0;" parent="1" source="258" target="303" edge="1">
                    <mxGeometry relative="1" as="geometry">
                        <mxPoint x="-355" y="348" as="sourcePoint"/>
                    </mxGeometry>
                </mxCell>
                <mxCell id="302" value="" style="rounded=0;orthogonalLoop=1;jettySize=auto;html=1;endArrow=oval;endFill=0;sketch=0;sourcePerimeterSpacing=0;targetPerimeterSpacing=0;endSize=10;exitX=0.5;exitY=0;exitDx=0;exitDy=0;" parent="1" source="299" target="303" edge="1">
                    <mxGeometry relative="1" as="geometry">
                        <mxPoint x="-395" y="348" as="sourcePoint"/>
                    </mxGeometry>
                </mxCell>
                <mxCell id="303" value="" style="ellipse;whiteSpace=wrap;html=1;align=center;aspect=fixed;fillColor=#000000;strokeColor=none;resizable=0;perimeter=centerPerimeter;rotatable=0;allowArrows=0;points=[];outlineConnect=1;" parent="1" vertex="1">
                    <mxGeometry x="-385" y="323" width="10" height="10" as="geometry"/>
                </mxCell>
                <mxCell id="304" value="" style="rounded=0;orthogonalLoop=1;jettySize=auto;html=1;endArrow=halfCircle;endFill=0;endSize=6;strokeWidth=1;sketch=0;exitX=0.5;exitY=1;exitDx=0;exitDy=0;" parent="1" source="261" target="306" edge="1">
                    <mxGeometry relative="1" as="geometry">
                        <mxPoint x="-285" y="358" as="sourcePoint"/>
                    </mxGeometry>
                </mxCell>
                <mxCell id="305" value="" style="rounded=0;orthogonalLoop=1;jettySize=auto;html=1;endArrow=oval;endFill=0;sketch=0;sourcePerimeterSpacing=0;targetPerimeterSpacing=0;endSize=10;exitX=0.5;exitY=0;exitDx=0;exitDy=0;" parent="1" source="300" target="306" edge="1">
                    <mxGeometry relative="1" as="geometry">
                        <mxPoint x="-325" y="358" as="sourcePoint"/>
                    </mxGeometry>
                </mxCell>
                <mxCell id="306" value="" style="ellipse;whiteSpace=wrap;html=1;align=center;aspect=fixed;fillColor=#000000;strokeColor=none;resizable=0;perimeter=centerPerimeter;rotatable=0;allowArrows=0;points=[];outlineConnect=1;" parent="1" vertex="1">
                    <mxGeometry x="-326" y="323" width="10" height="10" as="geometry"/>
                </mxCell>
                <mxCell id="307" value="" style="rounded=0;orthogonalLoop=1;jettySize=auto;html=1;endArrow=halfCircle;endFill=0;endSize=6;strokeWidth=1;sketch=0;exitX=0.5;exitY=1;exitDx=0;exitDy=0;" parent="1" source="212" target="309" edge="1">
                    <mxGeometry relative="1" as="geometry">
                        <mxPoint x="-405" y="545" as="sourcePoint"/>
                    </mxGeometry>
                </mxCell>
                <mxCell id="308" value="" style="rounded=0;orthogonalLoop=1;jettySize=auto;html=1;endArrow=oval;endFill=0;sketch=0;sourcePerimeterSpacing=0;targetPerimeterSpacing=0;endSize=10;exitX=1;exitY=0.5;exitDx=0;exitDy=0;" parent="1" source="75" target="309" edge="1">
                    <mxGeometry relative="1" as="geometry">
                        <mxPoint x="1080" y="441.4545232599432" as="sourcePoint"/>
                        <Array as="points">
                            <mxPoint x="1040" y="256"/>
                            <mxPoint x="1040" y="580"/>
                            <mxPoint x="-436" y="580"/>
                        </Array>
                    </mxGeometry>
                </mxCell>
                <mxCell id="309" value="" style="ellipse;whiteSpace=wrap;html=1;align=center;aspect=fixed;fillColor=#000000;strokeColor=none;resizable=0;perimeter=centerPerimeter;rotatable=0;allowArrows=0;points=[];outlineConnect=1;" parent="1" vertex="1">
                    <mxGeometry x="-441" y="510" width="10" height="10" as="geometry"/>
                </mxCell>
                <mxCell id="310" value="" style="rounded=0;orthogonalLoop=1;jettySize=auto;html=1;endArrow=halfCircle;endFill=0;endSize=6;strokeWidth=1;sketch=0;exitX=0.5;exitY=1;exitDx=0;exitDy=0;" parent="1" source="299" edge="1">
                    <mxGeometry relative="1" as="geometry">
                        <mxPoint x="-375" y="443" as="sourcePoint"/>
                        <mxPoint x="-380" y="515" as="targetPoint"/>
                    </mxGeometry>
                </mxCell>
                <mxCell id="311" value="" style="rounded=0;orthogonalLoop=1;jettySize=auto;html=1;endArrow=oval;endFill=0;sketch=0;sourcePerimeterSpacing=0;targetPerimeterSpacing=0;endSize=10;exitX=0.5;exitY=1;exitDx=0;exitDy=0;" parent="1" source="283" target="312" edge="1">
                    <mxGeometry relative="1" as="geometry">
                        <mxPoint x="550" y="550" as="sourcePoint"/>
                        <Array as="points">
                            <mxPoint x="705" y="560"/>
                            <mxPoint x="-380" y="560"/>
                        </Array>
                    </mxGeometry>
                </mxCell>
                <mxCell id="312" value="" style="ellipse;whiteSpace=wrap;html=1;align=center;aspect=fixed;fillColor=#000000;strokeColor=none;resizable=0;perimeter=centerPerimeter;rotatable=0;allowArrows=0;points=[];outlineConnect=1;" parent="1" vertex="1">
                    <mxGeometry x="-385" y="510" width="10" height="10" as="geometry"/>
                </mxCell>
                <mxCell id="317" value="" style="rounded=0;orthogonalLoop=1;jettySize=auto;html=1;endArrow=halfCircle;endFill=0;endSize=6;strokeWidth=1;sketch=0;exitX=0.5;exitY=1;exitDx=0;exitDy=0;" parent="1" source="300" target="319" edge="1">
                    <mxGeometry relative="1" as="geometry">
                        <mxPoint x="-170" y="525" as="sourcePoint"/>
                    </mxGeometry>
                </mxCell>
                <mxCell id="318" value="" style="rounded=0;orthogonalLoop=1;jettySize=auto;html=1;endArrow=oval;endFill=0;sketch=0;sourcePerimeterSpacing=0;targetPerimeterSpacing=0;endSize=10;exitX=0.5;exitY=1;exitDx=0;exitDy=0;" parent="1" source="276" target="319" edge="1">
                    <mxGeometry relative="1" as="geometry">
                        <mxPoint x="150" y="540" as="sourcePoint"/>
                        <Array as="points">
                            <mxPoint x="432" y="540"/>
                            <mxPoint x="-320" y="540"/>
                        </Array>
                    </mxGeometry>
                </mxCell>
                <mxCell id="319" value="" style="ellipse;whiteSpace=wrap;html=1;align=center;aspect=fixed;fillColor=#000000;strokeColor=none;resizable=0;perimeter=centerPerimeter;rotatable=0;allowArrows=0;points=[];outlineConnect=1;" parent="1" vertex="1">
                    <mxGeometry x="-326" y="510" width="10" height="10" as="geometry"/>
                </mxCell>
                <mxCell id="322" value="«Component»&lt;br&gt;&lt;b&gt;Lidar Driver&lt;/b&gt;" style="html=1;dropTarget=0;whiteSpace=wrap;" vertex="1" parent="1">
                    <mxGeometry x="-1070" y="264" width="180" height="90" as="geometry"/>
                </mxCell>
                <mxCell id="323" value="" style="shape=module;jettyWidth=8;jettyHeight=4;" vertex="1" parent="322">
                    <mxGeometry x="1" width="20" height="20" relative="1" as="geometry">
                        <mxPoint x="-27" y="7" as="offset"/>
                    </mxGeometry>
                </mxCell>
                <mxCell id="324" value="«Component»&lt;br&gt;&lt;b&gt;Object Detection&lt;/b&gt;" style="html=1;dropTarget=0;whiteSpace=wrap;" vertex="1" parent="1">
                    <mxGeometry x="-1300" y="323" width="180" height="90" as="geometry"/>
                </mxCell>
                <mxCell id="325" value="" style="shape=module;jettyWidth=8;jettyHeight=4;" vertex="1" parent="324">
                    <mxGeometry x="1" width="20" height="20" relative="1" as="geometry">
                        <mxPoint x="-27" y="7" as="offset"/>
                    </mxGeometry>
                </mxCell>
                <mxCell id="326" value="" style="rounded=0;orthogonalLoop=1;jettySize=auto;html=1;endArrow=halfCircle;endFill=0;endSize=6;strokeWidth=1;sketch=0;exitX=0.5;exitY=0;exitDx=0;exitDy=0;" edge="1" target="328" parent="1" source="324">
                    <mxGeometry relative="1" as="geometry">
                        <mxPoint x="-830" y="295" as="sourcePoint"/>
                    </mxGeometry>
                </mxCell>
                <mxCell id="327" value="" style="rounded=0;orthogonalLoop=1;jettySize=auto;html=1;endArrow=oval;endFill=0;sketch=0;sourcePerimeterSpacing=0;targetPerimeterSpacing=0;endSize=10;exitX=0.5;exitY=1;exitDx=0;exitDy=0;" edge="1" target="328" parent="1" source="174">
                    <mxGeometry relative="1" as="geometry">
                        <mxPoint x="-870" y="295" as="sourcePoint"/>
                    </mxGeometry>
                </mxCell>
                <mxCell id="328" value="" style="ellipse;whiteSpace=wrap;html=1;align=center;aspect=fixed;fillColor=#000000;strokeColor=none;resizable=0;perimeter=centerPerimeter;rotatable=0;allowArrows=0;points=[];outlineConnect=1;" vertex="1" parent="1">
                    <mxGeometry x="-1215" y="248" width="10" height="10" as="geometry"/>
                </mxCell>
            </root>
        </mxGraphModel>
    </diagram>
</mxfile>